<svg xmlns="http://www.w3.org/2000/svg" viewBox="0 0 64 64"><path d="M30 46C22 58 8 60 4 56C8 46 20 42 30 46Z" fill="#7E8C6A"/><path d="M34 46C42 58 56 60 60 56C56 46 44 42 34 46Z" fill="#7E8C6A"/><g transform="translate(32 28) scale(0.86)"><circle cx="18.00" cy="0.00" r="12" fill="#C41E3A" stroke="#8E1028" stroke-width="1.4"/><circle cx="9.00" cy="15.59" r="12" fill="#C41E3A" stroke="#8E1028" stroke-width="1.4"/><circle cx="-9.00" cy="15.59" r="12" fill="#C41E3A" stroke="#8E1028" stroke-width="1.4"/><circle cx="-18.00" cy="0.00" r="12" fill="#C41E3A" stroke="#8E1028" stroke-width="1.4"/><circle cx="-9.00" cy="-15.59" r="12" fill="#C41E3A" stroke="#8E1028" stroke-width="1.4"/><circle cx="9.00" cy="-15.59" r="12" fill="#C41E3A" stroke="#8E1028" stroke-width="1.4"/><circle r="22" fill="#C41E3A"/><path d="M-17 9Q-21-12 0-19M16-7Q19 14-2 18" stroke="#8E1028" stroke-width="1.8" stroke-linecap="round" fill="none"/><path d="M0-2a3 3 0 0 1 0 6a5 5 0 0 1 0-10a7 7 0 0 1 0 14a9 9 0 0 1 0-18a11 11 0 0 1 0 22" stroke="#8E1028" stroke-width="2.2" stroke-linecap="round" fill="none"/></g></svg>
